<?xml version="1.0" encoding="UTF-8"?>
<svg width="1001px" height="327px" viewBox="0 0 1001 327" version="1.1" xmlns="http://www.w3.org/2000/svg" xmlns:xlink="http://www.w3.org/1999/xlink">
    <!-- Generator: Sketch 53.2 (72643) - https://sketchapp.com -->
    <title>Logo Blue</title>
    <desc>Created with Sketch.</desc>
    <defs>
        <linearGradient x1="22.0401554%" y1="-4.11582661%" x2="16.5652927%" y2="104.247516%" id="linearGradient-1">
            <stop stop-color="#1E3BBE" offset="0%"></stop>
            <stop stop-color="#253491" offset="100%"></stop>
        </linearGradient>
        <linearGradient x1="42.8087192%" y1="-56.9428451%" x2="25.8873457%" y2="160.83892%" id="linearGradient-2">
            <stop stop-color="#1E3BBE" offset="0%"></stop>
            <stop stop-color="#253491" offset="100%"></stop>
        </linearGradient>
        <linearGradient x1="44.1505107%" y1="-56.9428451%" x2="30.3864266%" y2="160.83892%" id="linearGradient-3">
            <stop stop-color="#1E3BBE" offset="0%"></stop>
            <stop stop-color="#253491" offset="100%"></stop>
        </linearGradient>
        <linearGradient x1="40.9792573%" y1="-56.9428451%" x2="19.7530864%" y2="160.83892%" id="linearGradient-4">
            <stop stop-color="#1E3BBE" offset="0%"></stop>
            <stop stop-color="#253491" offset="100%"></stop>
        </linearGradient>
        <linearGradient x1="44.1750625%" y1="-56.9428451%" x2="30.46875%" y2="160.83892%" id="linearGradient-5">
            <stop stop-color="#1E3BBE" offset="0%"></stop>
            <stop stop-color="#253491" offset="100%"></stop>
        </linearGradient>
    </defs>
    <g id="Logo-Blue" stroke="none" stroke-width="1" fill="none" fill-rule="evenodd">
        <g id="Lowercase-with-different-icons">
            <circle id="Oval" fill="url(#linearGradient-1)" fill-rule="nonzero" cx="163.5" cy="163.5" r="163.5"></circle>
            <path d="M444.790368,234 L392.665722,234 C389.45513,234 387.849858,232.400016 387.849858,229.2 L387.849858,215.364706 C387.849858,212.352926 389.45513,210.847059 392.665722,210.847059 L440.25779,210.847059 C452.533584,210.847059 458.671388,206.611807 458.671388,198.141176 L458.671388,194.752941 C458.671388,187.223492 454.233283,181.482373 445.356941,177.529412 L414.478754,162.847059 C404.846977,158.329389 397.859323,153.341204 393.515581,147.882353 C389.171839,142.423502 387,135.270632 387,126.423529 C387,102.141055 400.50317,90 427.509915,90 L474.535411,90 C477.557144,90 479.067989,91.599984 479.067989,94.8 L479.067989,108.635294 C479.067989,111.83531 477.557144,113.435294 474.535411,113.435294 L433.175637,113.435294 C427.509887,113.435294 423.16621,114.42352 420.144476,116.4 C417.122742,118.37648 415.611898,120.96469 415.611898,124.164706 L415.611898,127.270588 C415.611898,133.294148 420.427714,138.564683 430.05949,143.082353 L461.220963,158.894118 C471.041598,163.223551 477.793183,168.352912 481.475921,174.282353 C485.158659,180.211794 487,187.882306 487,197.294118 C487,221.764828 472.930263,234 444.790368,234 Z" id="Path" fill="url(#linearGradient-2)" fill-rule="nonzero"></path>
            <path d="M533.335277,280 L518.431137,280 C515.244072,280 513.650564,278.397833 513.650564,275.193452 L513.650564,260.77381 C513.650564,257.380935 515.244072,255.684524 518.431137,255.684524 L524.898971,255.684524 C536.33491,255.684524 544.255584,253.422642 548.661232,248.89881 C553.066881,244.374977 556.769444,236.929615 559.769035,226.5625 L548.520627,226.5625 C545.708511,226.5625 543.74006,224.960333 542.615213,221.755952 L505.214258,94.8065476 C504.464361,91.6021665 505.682926,90 508.869991,90 L527.711073,90 C530.710664,90 532.585379,91.6021665 533.335277,94.8065476 L563.987188,205.639881 L565.112028,205.639881 L595.763939,94.8065476 C596.326362,91.6021665 598.201078,90 601.388143,90 L619.385595,90 C622.947608,90 624.447381,91.6964116 623.884958,95.0892857 L585.359162,231.08631 C581.047251,246.919722 574.954424,259.030216 567.0805,267.418155 C559.206575,275.806094 547.95828,280 533.335277,280 Z" id="Path" fill="url(#linearGradient-3)" fill-rule="nonzero"></path>
            <path d="M670.173771,234 L652.400471,234 C649.203142,234 647.604502,232.400016 647.604502,229.2 L647.604502,94.8 C647.604502,91.599984 649.203142,90 652.400471,90 L670.173771,90 C673.3711,90 674.969741,91.599984 674.969741,94.8 L674.969741,104.964706 L676.098204,104.964706 C680.612081,94.9881854 690.109887,90 704.591907,90 L717.005005,90 C730.734713,90 741.266933,93.7646682 748.601983,101.294118 C755.937032,108.823567 759.604502,119.646988 759.604502,133.764706 L759.604502,229.2 C759.604502,232.400016 757.911823,234 754.526416,234 L736.753116,234 C733.555787,234 731.957146,232.400016 731.957146,229.2 L731.957146,134.894118 C731.957146,120.964636 725.092396,114 711.362688,114 L698.103242,114 C682.680831,114 674.969741,121.99992 674.969741,138 L674.969741,229.2 C674.969741,232.400016 673.3711,234 670.173771,234 Z" id="Path" fill="url(#linearGradient-4)" fill-rule="nonzero"></path>
            <path d="M880,214.8 L880,229.482353 C880,232.494133 878.312517,234 874.9375,234 L833.59375,234 C819.718681,234 808.984413,230.141215 801.390625,222.423529 C793.796837,214.705844 790,203.976539 790,190.235294 L790,133.764706 C790,119.835224 793.796837,109.058862 801.390625,101.435294 C808.984413,93.8117266 819.718681,90 833.59375,90 L874.9375,90 C878.312517,90 880,91.599984 880,94.8 L880,109.482353 C880,112.494133 878.312517,114 874.9375,114 L837.53125,114 C824.031182,114 817.28125,120.964636 817.28125,134.894118 L817.28125,189.105882 C817.28125,203.035364 824.031182,210 837.53125,210 L874.9375,210 C878.312517,210 880,211.599984 880,214.8 Z" id="Path" fill="url(#linearGradient-5)" fill-rule="nonzero"></path>
            <path d="M958.790368,234 L906.665722,234 C903.45513,234 901.849858,232.400016 901.849858,229.2 L901.849858,215.364706 C901.849858,212.352926 903.45513,210.847059 906.665722,210.847059 L954.25779,210.847059 C966.533584,210.847059 972.671388,206.611807 972.671388,198.141176 L972.671388,194.752941 C972.671388,187.223492 968.233283,181.482373 959.356941,177.529412 L928.478754,162.847059 C918.846977,158.329389 911.859323,153.341204 907.515581,147.882353 C903.171839,142.423502 901,135.270632 901,126.423529 C901,102.141055 914.50317,90 941.509915,90 L988.535411,90 C991.557144,90 993.067989,91.599984 993.067989,94.8 L993.067989,108.635294 C993.067989,111.83531 991.557144,113.435294 988.535411,113.435294 L947.175637,113.435294 C941.509887,113.435294 937.16621,114.42352 934.144476,116.4 C931.122742,118.37648 929.611898,120.96469 929.611898,124.164706 L929.611898,127.270588 C929.611898,133.294148 934.427714,138.564683 944.05949,143.082353 L975.220963,158.894118 C985.041598,163.223551 991.793183,168.352912 995.475921,174.282353 C999.158659,180.211794 1001,187.882306 1001,197.294118 C1001,221.764828 986.930263,234 958.790368,234 Z" id="Path" fill="url(#linearGradient-2)" fill-rule="nonzero"></path>
            <path d="M237,112.335616 L237,73.1318243 C237,69.8160642 238.641728,68.158209 241.925234,68.158209 L263.074766,68.158209 C266.358272,68.158209 268,69.8160642 268,73.1318243 L268,112.335616 C268,135.350892 266.551416,160.023678 263.654206,186.354715 C263.074763,189.865519 261.336463,191.620896 258.439252,191.620896 L246.560748,191.620896 C243.663537,191.620896 241.925237,189.865519 241.345794,186.354715 C238.448584,160.023678 237,135.350892 237,112.335616 Z M268,215.897063 L268,251.234184 C268,254.516884 266.481803,256.158209 263.445363,256.158209 L244.372819,256.158209 C241.336379,256.158209 239.818182,254.420335 239.818182,250.944535 L239.818182,215.897063 C239.818182,212.807463 241.336379,211.262687 244.372819,211.262687 L263.445363,211.262687 C266.481803,211.262687 268,212.807463 268,215.897063 Z M210.237391,113.090202 C213.552459,113.090202 215.905101,114.012046 215.905101,118.087092 L215.905101,131.314152 C216.395786,134.841386 214.983616,136.604977 211.668549,136.604977 L182.710607,136.604977 L176.445809,190.395023 L201.629395,190.395023 C204.944462,190.395023 207.394826,191.52632 207.337995,195.685848 L207.394826,208.912908 C207.312347,212.191196 206.432451,213.909798 203.117384,213.909798 L173.574433,213.909798 L169.026791,252.709176 C168.737461,256.23641 167.13029,258 164.20523,258 L150.457521,258 C146.947449,258 145.309844,256.040455 145.544654,252.121306 L150.174076,213.909798 L108.638442,213.909798 L104.0908,252.709176 C103.411461,256.23641 101.511789,258 98.3917259,258 L85.229025,258 C81.5239499,258 79.9838444,256.040455 80.6086624,252.121306 L85.2380848,213.909798 L59.3410046,213.909798 C56.0259374,213.909798 55,213.105622 55,209.722426 L55,195.685848 C55,191.611764 56.0259374,190.395023 59.3410046,190.395023 L87.816956,190.395023 L94.0817544,136.604977 L63.0226122,136.604977 C59.3410046,136.604977 58.4526657,134.727358 58.4526657,131.314152 L58.4526657,118.087092 C58.4526657,114.877076 59.3410046,113.090202 63.0226122,113.090202 L96.9531301,113.090202 L101.500772,74.2908243 C101.595099,70.7635905 103.20227,69 106.322333,69 L119.777538,69 C123.677617,69 125.315223,70.9595449 124.690405,74.8786936 L120.353487,113.090202 L161.889121,113.090202 L166.436763,74.2908243 C166.726094,70.7635905 168.625766,69 172.135837,69 L184.713529,69 C188.418604,69 190.153711,70.9595449 189.918901,74.8786936 L185.289478,113.090202 L210.237391,113.090202 Z M151.709046,190 L158,136 L116.290954,136 L110,190 L151.709046,190 Z" id="Combined-Shape" fill="#FFFFFF"></path>
        </g>
    </g>
</svg>